<svg width="68" height="56" viewBox="0 0 68 56" fill="none" xmlns="http://www.w3.org/2000/svg">
<path d="M67.8463 6.69848C65.3603 7.80007 62.6897 8.54439 59.8821 8.88082C62.779 7.14743 64.9463 4.41928 65.9796 1.20541C63.2579 2.82204 60.2791 3.95997 57.1728 4.56973C55.0839 2.33935 52.3171 0.86102 49.3019 0.364256C46.2867 -0.132509 43.1918 0.380087 40.4978 1.82246C37.8038 3.26483 35.6614 5.55629 34.4031 8.34105C33.1448 11.1258 32.8412 14.2481 33.5392 17.2231C28.0244 16.9462 22.6294 15.5128 17.7044 13.016C12.7794 10.5191 8.43439 7.01455 4.95145 2.72978C3.76054 4.78409 3.07577 7.16591 3.07577 9.70255C3.07444 11.9861 3.63679 14.2347 4.71291 16.2488C5.78903 18.2629 7.34566 19.9802 9.24468 21.2484C7.04232 21.1783 4.88855 20.5832 2.96264 19.5127V19.6913C2.96241 22.8941 4.07028 25.9983 6.09825 28.4772C8.12622 30.9562 10.9494 32.6571 14.0887 33.2915C12.0456 33.8444 9.90366 33.9258 7.82452 33.5297C8.71025 36.2855 10.4356 38.6953 12.759 40.4218C15.0823 42.1483 17.8875 43.1051 20.7816 43.1582C15.8686 47.015 9.8011 49.107 3.55511 49.0978C2.4487 49.0981 1.34323 49.0335 0.244385 48.9043C6.58442 52.9807 13.9647 55.1441 21.5021 55.1357C47.0173 55.1357 60.9659 34.003 60.9659 15.675C60.9659 15.0795 60.951 14.4781 60.9242 13.8826C63.6373 11.9205 65.9793 9.49085 67.8404 6.70741L67.8463 6.69848Z" fill="#FF0000"/>
</svg>
